<svg width="16" height="14" viewBox="0 0 16 14" fill="none" xmlns="http://www.w3.org/2000/svg">
<g clip-path="url(#clip0_605_16582)">
<path d="M4.59297 2.70079C4.59297 3.30709 4.02672 3.80315 3.33463 3.80315C2.64255 3.80315 2.07629 3.30709 2.07629 2.70079V1.10236C2.07629 0.496063 2.64255 0 3.33463 0C4.02672 0 4.59297 0.496063 4.59297 1.10236V2.70079Z" fill="#313131"/>
<path d="M14.0305 1.87402V2.7008C14.0305 3.47245 13.2755 4.13387 12.3947 4.13387C11.5138 4.13387 10.7588 3.47245 10.7588 2.7008V1.87402H4.97045V2.7008C4.97045 3.47245 4.21544 4.13387 3.3346 4.13387C2.45376 4.13387 1.69876 3.47245 1.69876 2.7008V1.87402H0V14H15.918V1.87402H14.0305ZM14.7226 12.9528H1.19542V5.84253H14.7226V12.9528Z" fill="#313131"/>
<path d="M13.653 2.70079C13.653 3.30709 13.0868 3.80315 12.3947 3.80315C11.7026 3.80315 11.1364 3.30709 11.1364 2.70079V1.10236C11.1364 0.496063 11.7026 0 12.3947 0C13.0868 0 13.653 0.496063 13.653 1.10236V2.70079Z" fill="#313131"/>
<path d="M4.46711 7.22046H2.26501V9.14959H4.46711V7.22046Z" fill="#313131"/>
<path d="M4.46711 9.97638H2.26501V11.9055H4.46711V9.97638Z" fill="#313131"/>
<path d="M7.55 7.22046H5.3479V9.14959H7.55V7.22046Z" fill="#313131"/>
<path d="M7.55 9.97638H5.3479V11.9055H7.55V9.97638Z" fill="#313131"/>
<path d="M10.633 7.22046H8.43091V9.14959H10.633V7.22046Z" fill="#313131"/>
<path d="M10.633 9.97638H8.43091V11.9055H10.633V9.97638Z" fill="#313131"/>
<path d="M13.653 7.22046H11.4509V9.14959H13.653V7.22046Z" fill="#313131"/>
<path d="M13.653 9.97638H11.4509V11.9055H13.653V9.97638Z" fill="#313131"/>
</g>
<defs>
<clipPath id="clip0_605_16582">
<rect width="15.918" height="14" fill="white"/>
</clipPath>
</defs>
</svg>
