<svg width="28" height="29" viewBox="0 0 28 29" fill="none" xmlns="http://www.w3.org/2000/svg">
<path d="M1.18306 0.5C0.529676 0.5 0 1.04504 0 1.71739C0 2.38974 0.529676 2.93478 1.18306 2.93478H3.28809C3.46034 2.93478 3.62822 2.99055 3.76796 3.0942C3.90769 3.19784 4.01219 3.3441 4.06665 3.51225L7.9672 15.5557C8.14042 16.0904 8.16244 16.6662 8.02959 17.213L7.70841 18.5374C7.23714 20.4771 8.7045 22.413 10.6476 22.413H24.8444C25.4978 22.413 26.0274 21.868 26.0274 21.1957C26.0274 20.5233 25.4978 19.9783 24.8444 19.9783H10.6476C10.1869 19.9783 9.89118 19.5893 10.0029 19.1294L10.2451 18.1339C10.2862 17.9653 10.3808 17.8156 10.514 17.7086C10.6472 17.6016 10.8113 17.5435 10.9803 17.5435H23.6613C24.1707 17.5438 24.6231 17.2085 24.7843 16.7113L27.9384 6.97215C28.1939 6.18354 27.6232 5.36919 26.8154 5.36957H7.75462C7.58237 5.36957 7.41448 5.3138 7.27474 5.21016C7.13501 5.10652 7.0305 4.96026 6.97603 4.79211L5.85525 1.3322C5.69404 0.834971 5.24165 0.499726 4.73226 0.5H1.18306ZM9.46452 23.6304C8.15774 23.6304 7.09839 24.7205 7.09839 26.0652C7.09839 27.4099 8.15774 28.5 9.46452 28.5C10.7713 28.5 11.8306 27.4099 11.8306 26.0652C11.8306 24.7205 10.7713 23.6304 9.46452 23.6304ZM23.6613 23.6304C22.3545 23.6304 21.2952 24.7205 21.2952 26.0652C21.2952 27.4099 22.3545 28.5 23.6613 28.5C24.9681 28.5 26.0274 27.4099 26.0274 26.0652C26.0274 24.7205 24.9681 23.6304 23.6613 23.6304Z" fill="#FF9F00"/>
</svg>
