<svg width="16" height="10" viewBox="0 0 16 10" fill="none" xmlns="http://www.w3.org/2000/svg">
<g clip-path="url(#clip0_605_16574)">
<path d="M1.80354 7.86377V5.85139L1.0194 5.51083V7.86377C0.627331 7.95665 0.39209 8.23529 0.39209 8.54489C0.39209 8.97833 0.823366 9.31888 1.37226 9.31888C1.92116 9.31888 2.35244 8.97833 2.35244 8.54489C2.35244 8.23529 2.11719 7.98761 1.80354 7.86377Z" fill="#313131"/>
<path d="M7.95872 8.42105C7.64507 8.42105 7.33141 8.35913 7.09617 8.2353L2.7442 6.28483V7.83282C2.78341 7.83282 2.78341 7.86378 2.82262 7.86378L7.17458 9.8452C7.64507 10.0619 8.27238 10.0619 8.74286 9.8452L13.0948 7.86378C13.5653 7.64706 13.879 7.24458 13.879 6.78019V5.94427L8.82128 8.2353C8.58603 8.35913 8.27238 8.42105 7.95872 8.42105ZM15.5257 3.25077L8.74286 0.154799C8.50762 0.0619195 8.23317 0 7.95872 0C7.68427 0 7.40983 0.0619195 7.17458 0.154799L0.391789 3.25077C-0.117901 3.49845 -0.117901 4.08669 0.391789 4.30341L7.56665 7.55418C7.68427 7.6161 7.8019 7.64706 7.95872 7.64706C8.07634 7.64706 8.23317 7.6161 8.35079 7.55418L15.5257 4.30341C16.0353 4.05573 16.0353 3.46749 15.5257 3.25077Z" fill="#313131"/>
</g>
<defs>
<clipPath id="clip0_605_16574">
<rect width="15.918" height="10" fill="white"/>
</clipPath>
</defs>
</svg>
