<svg width="56" height="56" viewBox="0 0 56 56" fill="none" xmlns="http://www.w3.org/2000/svg">
<circle cx="28" cy="28" r="28" fill="#143D59"/>
<g clip-path="url(#clip0_1495_26)">
<path d="M14.8522 33.7274V29.7026L13.1773 29.0215V33.7274C12.3399 33.9131 11.8374 34.4704 11.8374 35.0896C11.8374 35.9565 12.7586 36.6376 13.931 36.6376C15.1034 36.6376 16.0246 35.9565 16.0246 35.0896C16.0246 34.4704 15.5221 33.975 14.8522 33.7274Z" fill="#143D59"/>
<path d="M27.9995 34.8421C27.3295 34.8421 26.6596 34.7183 26.1571 34.4706L16.8615 30.5697V33.6656C16.9453 33.6656 16.9453 33.7276 17.029 33.7276L26.3246 37.6904C27.3295 38.1238 28.6694 38.1238 29.6743 37.6904L38.9699 33.7276C39.9748 33.2941 40.6448 32.4892 40.6448 31.5604V29.8885L29.8418 34.4706C29.3394 34.7183 28.6694 34.8421 27.9995 34.8421ZM44.162 24.5015L29.6743 18.3096C29.1719 18.1238 28.5857 18 27.9995 18C27.4132 18 26.827 18.1238 26.3246 18.3096L11.8369 24.5015C10.7482 24.9969 10.7482 26.1734 11.8369 26.6068L27.162 33.1084C27.4132 33.2322 27.6645 33.2941 27.9995 33.2941C28.2507 33.2941 28.5857 33.2322 28.8369 33.1084L44.162 26.6068C45.2507 26.1115 45.2507 24.935 44.162 24.5015Z" fill="white"/>
</g>
<defs>
<clipPath id="clip0_1495_26">
<path d="M11 18H45V33C45 35.7614 42.7614 38 40 38H16C13.2386 38 11 35.7614 11 33V18Z" fill="white"/>
</clipPath>
</defs>
</svg>
