<svg width="88" height="32" viewBox="0 0 88 32" fill="none" xmlns="http://www.w3.org/2000/svg">
<g filter="url(#filter0_d_1285_1811)">
<path d="M74 12.6558V0C75.2782 0.036263 78.2857 0.253841 81.1053 1.83128C82.4962 2.61094 83.4173 3.84727 84 4.5V12.6558H74Z" fill="#E59819"/>
</g>
<path d="M0.5 21.5L7.5 9.49999H73.5C76.1504 9.34409 81.5427 8.4298 83.2101 6.02042C83.4828 5.40789 83.5955 5.2405 83.6945 5.09063C83.8181 4.85126 83.9309 4.66037 83.9949 4.51187C83.9966 4.50794 83.9983 4.50399 84 4.5V25C83.6667 27 80.7 31.1 73.5 31.5H7.5L0.5 21.5Z" fill="#FF9F00"/>
<defs>
<filter id="filter0_d_1285_1811" x="70" y="0" width="18" height="20.6558" filterUnits="userSpaceOnUse" color-interpolation-filters="sRGB">
<feFlood flood-opacity="0" result="BackgroundImageFix"/>
<feColorMatrix in="SourceAlpha" type="matrix" values="0 0 0 0 0 0 0 0 0 0 0 0 0 0 0 0 0 0 127 0" result="hardAlpha"/>
<feOffset dy="4"/>
<feGaussianBlur stdDeviation="2"/>
<feComposite in2="hardAlpha" operator="out"/>
<feColorMatrix type="matrix" values="0 0 0 0 0 0 0 0 0 0 0 0 0 0 0 0 0 0 0.25 0"/>
<feBlend mode="normal" in2="BackgroundImageFix" result="effect1_dropShadow_1285_1811"/>
<feBlend mode="normal" in="SourceGraphic" in2="effect1_dropShadow_1285_1811" result="shape"/>
</filter>
</defs>
</svg>
