<svg width="20" height="12" viewBox="0 0 20 12" fill="none" xmlns="http://www.w3.org/2000/svg">
<g clip-path="url(#clip0_513_2894)">
<path d="M2.26607 9.43654V7.02168L1.28085 6.61301V9.43654C0.788242 9.54799 0.492676 9.88236 0.492676 10.2539C0.492676 10.774 1.03455 11.1827 1.7242 11.1827C2.41386 11.1827 2.95573 10.774 2.95573 10.2539C2.95573 9.88236 2.66016 9.58514 2.26607 9.43654Z" fill="#143D59"/>
<path d="M9.99989 10.1053C9.6058 10.1053 9.21172 10.031 8.91615 9.88235L3.44817 7.5418V9.39938C3.49743 9.39938 3.49743 9.43653 3.54669 9.43653L9.01467 11.8142C9.6058 12.0743 10.394 12.0743 10.9851 11.8142L16.4531 9.43653C17.0442 9.17647 17.4383 8.6935 17.4383 8.13622V7.13313L11.0836 9.88235C10.7881 10.031 10.394 10.1053 9.99989 10.1053ZM19.5073 3.90093L10.9851 0.185759C10.6895 0.0743034 10.3447 0 9.99989 0C9.65507 0 9.31024 0.0743034 9.01467 0.185759L0.492503 3.90093C-0.147892 4.19814 -0.147892 4.90403 0.492503 5.16409L9.50728 9.06502C9.65507 9.13932 9.80285 9.17647 9.99989 9.17647C10.1477 9.17647 10.3447 9.13932 10.4925 9.06502L19.5073 5.16409C20.1477 4.86687 20.1477 4.16099 19.5073 3.90093Z" fill="white"/>
</g>
<defs>
<clipPath id="clip0_513_2894">
<path d="M0 0H20V7C20 9.76142 17.7614 12 15 12H5C2.23858 12 0 9.76142 0 7V0Z" fill="white"/>
</clipPath>
</defs>
</svg>
