<svg width="12" height="18" viewBox="0 0 12 18" fill="none" xmlns="http://www.w3.org/2000/svg">
<g clip-path="url(#clip0_513_2905)">
<path d="M8.21785 14.8154H3.73536C3.31513 14.8154 2.98828 15.1385 2.98828 15.5538V15.6923C2.98828 16.1077 3.31513 16.4308 3.73536 16.4308H4.48244V16.6154C4.48244 17.4 5.08945 18 5.88322 18H6.06999C6.86377 18 7.47077 17.4 7.47077 16.6154V16.4308H8.21785C8.63809 16.4308 8.96494 16.1077 8.96494 15.6923V15.6C9.01163 15.1385 8.63809 14.8154 8.21785 14.8154Z" fill="white"/>
<path d="M5.27626 0.0461559C2.75486 0.323079 0.326841 2.72308 0.046685 5.21539C-0.186778 7.10769 0.513611 8.81539 1.68093 10.0615C2.38132 10.7538 2.75486 11.7231 2.75486 12.6923C2.75486 13.2 3.17509 13.6154 3.68871 13.6154H8.31128C8.82489 13.6154 9.24513 13.2 9.24513 12.6923C9.24513 11.7231 9.61867 10.7538 10.3191 10.0615C11.393 9 12.0467 7.52308 12.0467 5.90769C12 2.44616 8.91828 -0.369229 5.27626 0.0461559ZM5.41634 11.3077C5.41634 11.6308 5.13618 11.9077 4.80933 11.9077C4.48248 11.9077 4.20233 11.6308 4.20233 11.3077V8.81539C4.24902 8.03077 3.59532 7.38462 2.80155 7.38462C2.4747 7.38462 2.19455 7.10769 2.19455 6.83077C2.19455 6.50769 2.4747 6.23077 2.80155 6.23077C4.24902 6.23077 5.41634 7.38462 5.41634 8.81539V11.3077ZM9.19844 7.38462C8.40466 7.38462 7.75097 8.03077 7.75097 8.81539V11.3077C7.75097 11.6308 7.47081 11.9077 7.14396 11.9077C6.81711 11.9077 6.53696 11.6308 6.53696 11.3077V8.81539C6.53696 7.38462 7.70427 6.23077 9.15174 6.23077C9.47859 6.23077 9.75875 6.50769 9.75875 6.83077C9.75875 7.10769 9.52528 7.38462 9.19844 7.38462Z" fill="white"/>
</g>
<defs>
<clipPath id="clip0_513_2905">
<path d="M0 0H12V13C12 15.7614 9.76142 18 7 18H5C2.23858 18 0 15.7614 0 13V0Z" fill="white"/>
</clipPath>
</defs>
</svg>
