<svg width="17" height="16" viewBox="0 0 17 16" fill="none" xmlns="http://www.w3.org/2000/svg">
<path d="M17 7.79134C17 12.0875 13.1869 15.5827 8.5 15.5827C3.81314 15.5827 0 12.0875 0 7.79134C0 7.52238 0.237646 7.30438 0.53125 7.30438C0.824854 7.30438 1.0625 7.52238 1.0625 7.79134C1.0625 11.5505 4.39893 14.6088 8.5 14.6088C12.6011 14.6088 15.9375 11.5505 15.9375 7.79134C15.9375 4.03218 12.6011 0.973918 8.5 0.973918C6.52357 0.973918 4.6881 1.67822 3.30756 2.92175H5.3125C5.6061 2.92175 5.84375 3.13975 5.84375 3.40871C5.84375 3.67768 5.6061 3.89567 5.3125 3.89567H2.125C1.8314 3.89567 1.59375 3.67768 1.59375 3.40871V0.486959C1.59375 0.217995 1.8314 0 2.125 0C2.4186 0 2.65625 0.217995 2.65625 0.486959V2.14798C4.22361 0.776699 6.28309 0 8.5 0C13.1869 0 17 3.49523 17 7.79134ZM9.03125 7.30438H7.96875C7.67568 7.30438 7.4375 7.0859 7.4375 6.81742C7.4375 6.54895 7.67568 6.33047 7.96875 6.33047H10.0938C10.3874 6.33047 10.625 6.11247 10.625 5.84351C10.625 5.57454 10.3874 5.35655 10.0938 5.35655H9.03125V4.86959C9.03125 4.60063 8.7936 4.38263 8.5 4.38263C8.2064 4.38263 7.96875 4.60063 7.96875 4.86959V5.35655C7.08989 5.35655 6.375 6.01183 6.375 6.81742C6.375 7.62302 7.08989 8.2783 7.96875 8.2783H9.03125C9.32432 8.2783 9.5625 8.49678 9.5625 8.76526C9.5625 9.03374 9.32432 9.25222 9.03125 9.25222H6.90625C6.61265 9.25222 6.375 9.47021 6.375 9.73918C6.375 10.0081 6.61265 10.2261 6.90625 10.2261H7.96875V10.7131C7.96875 10.9821 8.2064 11.2001 8.5 11.2001C8.7936 11.2001 9.03125 10.9821 9.03125 10.7131V10.2261C9.91011 10.2261 10.625 9.57085 10.625 8.76526C10.625 7.95967 9.91011 7.30438 9.03125 7.30438Z" fill="white"/>
</svg>
