<svg width="16" height="13" viewBox="0 0 16 13" fill="none" xmlns="http://www.w3.org/2000/svg">
<path d="M13.5212 0H8.03234C7.13014 0 6.39258 0.685103 6.39258 1.51196V2.84817C6.39258 3.05523 6.57575 3.22302 6.80166 3.22302C7.02756 3.22302 7.2106 3.05523 7.2106 2.84817V1.51196C7.21176 1.09502 7.57747 0.755806 8.03234 0.749826H13.5212C13.9724 0.749826 14.3274 1.09853 14.3274 1.51196V11.2067C14.3327 11.6177 13.9737 11.9548 13.5253 11.9596H8.03247C7.57939 11.9581 7.21252 11.6219 7.2106 11.2067V9.89841C7.2106 9.69123 7.02756 9.52344 6.80166 9.52344C6.57575 9.52344 6.39258 9.69123 6.39258 9.89841V11.2067C6.39501 12.0359 7.12771 12.7074 8.03234 12.7094H13.5212C14.4216 12.7064 15.149 12.0345 15.1454 11.2091V1.51196C15.1454 0.685103 14.4234 0 13.5212 0Z" fill="white"/>
<path d="M1.40392 6.74854H11.0839C11.3098 6.74854 11.493 6.58063 11.493 6.37357C11.493 6.16662 11.3098 5.99871 11.0839 5.99871H1.3131L3.41157 3.77526C3.55957 3.61756 3.54115 3.38001 3.37077 3.24294C3.20077 3.10669 2.9425 3.12252 2.79399 3.27823V3.27847L0.148932 6.07106C0.0514596 6.14457 -0.00341663 6.25526 0.000165044 6.37075C0.00400255 6.48648 0.0659142 6.59412 0.168119 6.66212L2.81343 9.08689C2.9732 9.23334 3.23223 9.23334 3.39174 9.08689C3.54947 8.94502 3.5519 8.7131 3.39724 8.56852C3.39545 8.567 3.39366 8.56536 3.39174 8.56372L1.40392 6.74854Z" fill="white"/>
</svg>
