<svg width="29" height="30" viewBox="0 0 29 30" fill="none" xmlns="http://www.w3.org/2000/svg">
<g clip-path="url(#clip0_518_5205)">
<path d="M12.8007 28.1836C14.2084 28.1836 15.3495 27.0031 15.3495 25.5469C15.3495 24.0907 14.2084 22.9102 12.8007 22.9102C11.393 22.9102 10.2519 24.0907 10.2519 25.5469C10.2519 27.0031 11.393 28.1836 12.8007 28.1836Z" fill="white"/>
<path d="M21.3534 28.1836C22.7611 28.1836 23.9022 27.0031 23.9022 25.5469C23.9022 24.0907 22.7611 22.9102 21.3534 22.9102C19.9457 22.9102 18.8046 24.0907 18.8046 25.5469C18.8046 27.0031 19.9457 28.1836 21.3534 28.1836Z" fill="white"/>
<path d="M0.849604 3.57427H4.39262L8.4944 18.4285L8.17268 19.0941C7.32557 20.8448 8.55529 22.9101 10.4527 22.9101H24.7518C25.2214 22.9101 25.6014 22.517 25.6014 22.0312C25.6014 21.5454 25.2214 21.1523 24.7518 21.1523H10.4527C9.82177 21.1523 9.40943 20.465 9.69268 19.8803L9.92751 19.3945H24.7518C25.131 19.3945 25.4645 19.1344 25.5691 18.7568L28.9675 6.45214C29.0405 6.18695 28.9891 5.90195 28.8289 5.6814C28.668 5.46168 28.4166 5.33207 28.1503 5.33207H6.64521L5.85038 2.45414C5.74582 2.0765 5.41232 1.81641 5.03311 1.81641H0.849604C0.38 1.81641 0 2.20951 0 2.69531C0 3.18111 0.38 3.57427 0.849604 3.57427Z" fill="white"/>
</g>
<defs>
<clipPath id="clip0_518_5205">
<rect width="29" height="30" fill="white"/>
</clipPath>
</defs>
</svg>
