<svg width="18" height="18" viewBox="0 0 18 18" fill="none" xmlns="http://www.w3.org/2000/svg">
<path d="M13.2188 17.4375H3.375C2.92786 17.4362 2.49941 17.2579 2.18323 16.9418C1.86705 16.6256 1.68884 16.1971 1.6875 15.75C1.6882 14.4553 2.03283 13.184 2.68612 12.0662C3.33941 10.9484 4.27791 10.0242 5.40562 9.38812C6.41443 10.2291 7.68662 10.689 9 10.6875C9.93802 10.6893 10.8612 10.4532 11.6831 10.0012C11.5813 10.2156 11.5294 10.4502 11.5312 10.6875V11.5312H10.6875C10.2399 11.5312 9.81072 11.709 9.49426 12.0255C9.17779 12.342 9 12.7712 9 13.2187C9 13.6663 9.17779 14.0955 9.49426 14.412C9.81072 14.7285 10.2399 14.9062 10.6875 14.9062H11.5312V15.75C11.5326 16.1971 11.7108 16.6256 12.027 16.9418C12.3432 17.2579 12.7716 17.4362 13.2188 17.4375Z" fill="white"/>
<path d="M9 9.5625C11.4853 9.5625 13.5 7.54778 13.5 5.0625C13.5 2.57722 11.4853 0.5625 9 0.5625C6.51472 0.5625 4.5 2.57722 4.5 5.0625C4.5 7.54778 6.51472 9.5625 9 9.5625Z" fill="white"/>
<path d="M15.75 12.6562H13.7812V10.6875C13.7812 10.5383 13.722 10.3952 13.6165 10.2898C13.511 10.1843 13.3679 10.125 13.2188 10.125C13.0696 10.125 12.9265 10.1843 12.821 10.2898C12.7155 10.3952 12.6562 10.5383 12.6562 10.6875V12.6562H10.6875C10.5383 12.6562 10.3952 12.7155 10.2898 12.821C10.1843 12.9265 10.125 13.0696 10.125 13.2188C10.125 13.3679 10.1843 13.511 10.2898 13.6165C10.3952 13.722 10.5383 13.7812 10.6875 13.7812H12.6562V15.75C12.6562 15.8992 12.7155 16.0423 12.821 16.1477C12.9265 16.2532 13.0696 16.3125 13.2188 16.3125C13.3679 16.3125 13.511 16.2532 13.6165 16.1477C13.722 16.0423 13.7812 15.8992 13.7812 15.75V13.7812H15.75C15.8992 13.7812 16.0423 13.722 16.1477 13.6165C16.2532 13.511 16.3125 13.3679 16.3125 13.2188C16.3125 13.0696 16.2532 12.9265 16.1477 12.821C16.0423 12.7155 15.8992 12.6562 15.75 12.6562Z" fill="white"/>
</svg>
