<svg width="33" height="32" viewBox="0 0 33 32" fill="none" xmlns="http://www.w3.org/2000/svg">
<path d="M16.5 31.322C25.6127 31.322 33 24.3104 33 15.661C33 7.01168 25.6127 0 16.5 0C7.3873 0 0 7.01168 0 15.661C0 24.3104 7.3873 31.322 16.5 31.322Z" fill="white"/>
<path d="M12.1016 7.81924C13.2693 6.68378 14.6238 6.66493 14.789 6.66493C16.7011 4.93246 18.4514 5.20467 18.4514 5.20467C16.9492 5.48514 15.9264 6.3904 15.594 6.7238C17.3443 7.00295 18.119 8.19398 18.119 8.19398C16.9028 7.04033 15.3849 7.04033 15.3849 7.04033C15.3549 7.04033 15.3246 7.04198 15.2946 7.04331C13.9426 8.58625 14.4733 10.3382 14.4733 10.3382C15.2249 12.7736 17.5569 13.3388 18.1869 13.4473C18.9745 13.1691 19.6721 12.7009 20.211 12.0889C20.7498 11.4769 21.1114 10.7422 21.26 9.95714C21.4086 9.17211 21.3392 8.36387 21.0585 7.61208C20.7777 6.8603 20.2955 6.19091 19.6592 5.6699C19.023 5.14888 18.2546 4.79422 17.43 4.64087C16.6053 4.48752 15.7528 4.54078 14.9564 4.79539C14.1601 5.05 13.4473 5.49717 12.8885 6.09284C12.3297 6.68851 11.944 7.41211 11.7695 8.19233C11.8694 8.05963 11.9805 7.93486 12.1016 7.81924Z" fill="#FF9F00"/>
<path d="M12.0715 10.0681C12.0904 10.6376 12.2705 11.2227 12.4061 11.5875C12.9448 12.3996 13.7373 13.0317 14.6729 13.3954C13.3372 11.7595 12.919 9.08376 14.2683 7.24347C13.0295 7.67245 12.0398 8.74805 12.0715 10.0681Z" fill="#FF9F00"/>
<path d="M27.4225 23.7095C27.3361 21.9145 27.2288 19.0701 25.5757 16.7429C25.5757 16.7429 25.1049 16.1337 23.9877 15.7285C23.9877 15.7285 21.5616 15.0273 20.4445 14.2693L19.9343 14.6L19.9911 17.7478L16.9281 25.5088C16.8955 25.5918 16.837 25.6634 16.7603 25.7139C16.6837 25.7645 16.5926 25.7916 16.4993 25.7916C16.4059 25.7916 16.3148 25.7645 16.2382 25.7139C16.1616 25.6634 16.103 25.5918 16.0705 25.5088L13.0099 17.7484C13.0099 17.7484 13.0663 14.6106 13.0653 14.6007C13.0726 14.6271 12.5544 14.2699 12.5544 14.2699C11.4393 15.028 9.01224 15.7292 9.01224 15.7292C7.89505 16.1344 7.42392 16.7436 7.42392 16.7436C5.77287 19.0708 5.6638 21.9152 5.57703 23.7102C5.51744 24.9508 5.79134 25.4132 6.13458 25.5455C10.4075 27.1731 22.5882 27.1731 26.8619 25.5455C27.2093 25.4135 27.4814 24.9502 27.4225 23.7095Z" fill="#FF9F00"/>
<path d="M16.6098 15.9379L16.4704 15.9409C16.015 15.9363 15.5636 15.8596 15.1348 15.714L16.3488 17.4775L15.2609 18.4754L16.3823 24.9382C16.3867 24.9652 16.4013 24.9897 16.4232 25.0074C16.4452 25.025 16.4731 25.0345 16.5018 25.0342C16.5304 25.0341 16.5581 25.0244 16.58 25.0069C16.6019 24.9893 16.6165 24.965 16.6213 24.9382L17.7427 18.4754L16.6523 17.4775L17.8486 15.7404C17.4458 15.8541 17.0297 15.9205 16.6098 15.9379Z" fill="#FF9F00"/>
</svg>
