<svg width="15" height="13" viewBox="0 0 15 13" fill="none" xmlns="http://www.w3.org/2000/svg">
<path d="M0.453752 8.01294C0.482073 8.84075 0.753212 9.69115 0.957222 10.2214C1.76796 11.4017 2.96069 12.3203 4.36875 12.849C2.35854 10.4714 1.72921 6.58231 3.75987 3.90756C1.89546 4.53106 0.406028 6.09437 0.453752 8.01294Z" fill="white"/>
<path d="M0.499798 4.74402C2.25722 3.0937 4.29575 3.0663 4.54434 3.0663C7.42198 0.548266 10.0563 0.943902 10.0563 0.943902C7.79539 1.35155 6.25613 2.66729 5.75581 3.15186C8.39011 3.55759 9.55596 5.28868 9.55596 5.28868C7.72564 3.61192 5.44114 3.61192 5.44114 3.61192C5.39604 3.61192 5.35041 3.61432 5.30531 3.61624C3.27045 5.85882 4.06919 8.40521 4.06919 8.40521C5.20042 11.9448 8.71002 12.7663 9.65822 12.924C10.8435 12.5197 11.8934 11.8392 12.7044 10.9497C13.5154 10.0602 14.0596 8.9923 14.2832 7.85131C14.5069 6.71032 14.4023 5.5356 13.9799 4.44292C13.5574 3.35025 12.8316 2.37734 11.874 1.62008C10.9164 0.862822 9.76011 0.347349 8.519 0.124467C7.2779 -0.0984156 5.99485 -0.0210143 4.79631 0.349042C3.59778 0.719099 2.52512 1.36904 1.68407 2.2348C0.843016 3.10057 0.262591 4.15228 0 5.28628C0.150286 5.0934 0.317436 4.91205 0.499798 4.74402Z" fill="white"/>
</svg>
