<svg width="57" height="57" viewBox="0 0 57 57" fill="none" xmlns="http://www.w3.org/2000/svg">
<circle cx="28.5" cy="28.5" r="28.5" fill="#143D59"/>
<path d="M32.154 38.5127H24.4318C23.7078 38.5127 23.1448 39.0693 23.1448 39.7849V40.0234C23.1448 40.739 23.7078 41.2956 24.4318 41.2956H25.7188V41.6136C25.7188 42.9653 26.7645 43.999 28.132 43.999H28.4538C29.8212 43.999 30.8669 42.9653 30.8669 41.6136V41.2956H32.154C32.8779 41.2956 33.441 40.739 33.441 40.0234V39.8644C33.5214 39.0693 32.8779 38.5127 32.154 38.5127Z" fill="white"/>
<path d="M27.0862 13.0702C22.7425 13.5473 18.5597 17.6819 18.0771 21.9755C17.6749 25.2354 18.8815 28.1773 20.8924 30.3241C22.099 31.5168 22.7425 33.1865 22.7425 34.8562C22.7425 35.7309 23.4665 36.4465 24.3513 36.4465H32.3148C33.1996 36.4465 33.9236 35.7309 33.9236 34.8562C33.9236 33.1865 34.5671 31.5168 35.7737 30.3241C37.6238 28.4954 38.7499 25.951 38.7499 23.1681C38.6695 17.2048 33.3605 12.3546 27.0862 13.0702ZM27.3276 32.4709C27.3276 33.0275 26.8449 33.5046 26.2818 33.5046C25.7188 33.5046 25.2361 33.0275 25.2361 32.4709V28.1773C25.3166 26.8256 24.1904 25.7125 22.823 25.7125C22.2599 25.7125 21.7773 25.2354 21.7773 24.7583C21.7773 24.2018 22.2599 23.7247 22.823 23.7247C25.3166 23.7247 27.3276 25.7125 27.3276 28.1773V32.4709ZM33.8431 25.7125C32.4757 25.7125 31.3495 26.8256 31.3495 28.1773V32.4709C31.3495 33.0275 30.8669 33.5046 30.3038 33.5046C29.7407 33.5046 29.2581 33.0275 29.2581 32.4709V28.1773C29.2581 25.7125 31.2691 23.7247 33.7627 23.7247C34.3258 23.7247 34.8084 24.2018 34.8084 24.7583C34.8084 25.2354 34.4062 25.7125 33.8431 25.7125Z" fill="white"/>
</svg>
