<svg width="10" height="10" viewBox="0 0 10 10" fill="none" xmlns="http://www.w3.org/2000/svg">
<g clip-path="url(#clip0_1761_239)">
<path d="M1.26318 3.55469L1.73031 9.20062C1.7718 9.65639 2.14803 10 2.60551 10H7.39486C7.85234 10 8.22857 9.65639 8.27033 9.19805L8.73721 3.55469H1.26318ZM3.53533 7.94922C3.53533 8.11115 3.4043 8.24219 3.24236 8.24219C3.08043 8.24219 2.94939 8.11115 2.94939 7.94922V4.43359C2.94939 4.27166 3.08043 4.14062 3.24236 4.14062C3.4043 4.14062 3.53533 4.27166 3.53533 4.43359V7.94922ZM5.29314 7.94922C5.29314 8.11115 5.16211 8.24219 5.00018 8.24219C4.83824 8.24219 4.70721 8.11115 4.70721 7.94922V4.43359C4.70721 4.27166 4.83824 4.14062 5.00018 4.14062C5.16211 4.14062 5.29314 4.27166 5.29314 4.43359V7.94922ZM7.05096 7.94922C7.05096 8.11115 6.91992 8.24219 6.75799 8.24219C6.59605 8.24219 6.46502 8.11115 6.46502 7.94922V4.43359C6.46502 4.27166 6.59605 4.14062 6.75799 4.14062C6.91992 4.14062 7.05096 4.27166 7.05096 4.43359V7.94922Z" fill="white"/>
<path d="M8.51562 1.17188H6.46484V0.878906C6.46484 0.394258 6.07059 0 5.58594 0H4.41406C3.92941 0 3.53516 0.394258 3.53516 0.878906V1.17188H1.48438C0.999727 1.17188 0.605469 1.56613 0.605469 2.05078V2.63672C0.605469 2.79865 0.736504 2.92969 0.898438 2.92969C1.24555 2.92969 8.94344 2.92969 9.10156 2.92969C9.2635 2.92969 9.39453 2.79865 9.39453 2.63672V2.05078C9.39453 1.56613 9.00027 1.17188 8.51562 1.17188ZM5.87891 1.17188H4.12109V0.878906C4.12109 0.717266 4.25242 0.585938 4.41406 0.585938H5.58594C5.74758 0.585938 5.87891 0.717266 5.87891 0.878906V1.17188Z" fill="white"/>
</g>
<defs>
<clipPath id="clip0_1761_239">
<rect width="10" height="10" fill="white"/>
</clipPath>
</defs>
</svg>
