<svg width="13" height="15" viewBox="0 0 13 15" fill="none" xmlns="http://www.w3.org/2000/svg">
<g clip-path="url(#clip0_605_16609)">
<path d="M11.4402 8.04562C11.4629 8.00863 11.5083 7.97164 11.5537 7.91615C11.5537 7.91615 11.5537 7.89766 11.5764 7.89766C11.6445 7.76819 11.7806 7.60173 11.7806 7.58323C12.2573 6.80641 12.507 5.97411 12.507 5.10481C12.507 5.01233 12.507 4.91985 12.507 4.82738C12.507 4.79038 12.507 4.75339 12.507 4.7164V4.64242C12.507 4.62392 12.507 4.58693 12.507 4.56844C12.507 4.53145 12.507 4.49445 12.4843 4.47596V4.40198C12.4843 4.36498 12.4843 4.32799 12.4616 4.3095C12.4616 4.291 12.4616 4.25401 12.4389 4.23551L12.4162 4.16153C12.4162 4.12454 12.3935 4.08755 12.3935 4.05056C12.3935 4.01357 12.3708 3.99507 12.3708 3.95808L12.3481 3.8841C12.3481 3.8471 12.3254 3.82861 12.3254 3.79162C12.3027 3.75463 12.3027 3.71763 12.28 3.68064L12.2573 3.56967C12.2573 3.55117 12.2346 3.53268 12.2346 3.51418C12.2119 3.47719 12.2119 3.4217 12.1892 3.38471V3.32923C12.1892 3.31073 12.1665 3.29223 12.1665 3.27374C12.1438 3.23675 12.1211 3.18126 12.1211 3.14427L12.0984 3.08878C12.0984 3.07029 12.0757 3.05179 12.0757 3.03329C12.053 2.9963 12.0303 2.94082 12.0076 2.90382L11.9849 2.84834C11.9849 2.82984 11.9622 2.81135 11.9622 2.81135C11.9395 2.75586 11.8941 2.70037 11.8487 2.62639L11.8033 2.5894C11.7579 2.53391 11.7352 2.47842 11.6899 2.40444L11.6672 2.36745C11.6218 2.31196 11.5764 2.23798 11.531 2.18249L11.5083 2.164C11.4629 2.10851 11.4175 2.05302 11.3494 1.97904L11.3267 1.96054C11.2813 1.90506 11.2132 1.83107 11.1678 1.77559C11.1678 1.77559 11.1678 1.75709 11.1451 1.75709C11.077 1.70161 11.0316 1.64612 10.9635 1.57214C10.8954 1.51665 10.8273 1.46116 10.7592 1.40567C9.62427 0.48089 8.05805 -0.0184937 6.24215 -0.0184937C2.56496 2.03215e-06 0 2.09001 0 5.08632C0 6.0111 0.295084 6.93588 0.839853 7.7312L0.930648 7.87916V7.89766L1.08954 8.10111C1.11224 8.11961 1.13494 8.1381 1.15764 8.1566L5.15261 13.6313L6.08326 14.9075C6.12866 14.9815 6.21945 15.0185 6.31025 15.0185C6.40104 15.0185 6.49184 14.9815 6.53724 14.9075L7.44519 13.6313L11.3494 8.1566C11.3948 8.11961 11.4175 8.08262 11.4402 8.04562ZM9.76046 5.1603C9.76046 5.17879 9.76046 5.21579 9.73776 5.23428L9.71506 5.30826C9.71506 5.36375 9.69236 5.40074 9.69236 5.43773C9.69236 5.47472 9.66966 5.51172 9.66966 5.54871L9.64697 5.62269C9.64697 5.65968 9.62427 5.69667 9.62427 5.71517C9.60157 5.75216 9.57887 5.80765 9.57887 5.84464L9.53347 5.90013C9.53347 5.91862 9.51077 5.95561 9.51077 5.97411C9.48807 6.02959 9.44268 6.08508 9.41998 6.12207L9.39728 6.15906C9.39728 6.17756 9.37458 6.19606 9.37458 6.21455C9.32918 6.27004 9.28378 6.34402 9.23839 6.39951C9.21569 6.418 9.21569 6.4365 9.19299 6.455C9.14759 6.52898 9.0795 6.58447 9.0114 6.63995C9.0114 6.65845 8.9887 6.65845 8.9887 6.65845C8.9206 6.73243 8.85251 6.78792 8.76171 6.8619C8.10345 7.41677 7.2182 7.7127 6.28755 7.7312C6.26485 7.7312 6.26485 7.7312 6.24215 7.7312C4.29006 7.7312 2.70115 6.4365 2.70115 4.84587C2.70115 3.25524 4.29006 1.96054 6.24215 1.96054H6.28755C7.2182 1.96054 8.10345 2.27497 8.76171 2.81135L8.78441 2.82984C8.87521 2.90382 8.9433 2.95931 8.9887 3.0148L9.0114 3.03329C9.0795 3.10728 9.12489 3.16276 9.19299 3.23675C9.19299 3.25524 9.21569 3.25524 9.21569 3.27374C9.28378 3.34772 9.32918 3.40321 9.35188 3.47719C9.37458 3.49569 9.37458 3.51418 9.37458 3.53268L9.39728 3.55117C9.44268 3.62516 9.46537 3.66215 9.51077 3.73613C9.53347 3.75463 9.53347 3.79162 9.53347 3.81011L9.55617 3.8841C9.57887 3.92109 9.60157 3.97657 9.60157 4.01357C9.62427 4.05056 9.62427 4.06905 9.62427 4.10604L9.64697 4.18003C9.66966 4.21702 9.66966 4.25401 9.66966 4.291C9.66966 4.32799 9.69236 4.38348 9.69236 4.42047L9.71506 4.49445C9.71506 4.51295 9.71506 4.54994 9.73776 4.56844C9.76046 4.66091 9.76046 4.77189 9.76046 4.86437C9.78316 4.95685 9.76046 5.04932 9.76046 5.1603Z" fill="#313131"/>
</g>
<defs>
<clipPath id="clip0_605_16609">
<rect width="12.507" height="15" fill="white"/>
</clipPath>
</defs>
</svg>
