<svg width="57" height="57" viewBox="0 0 57 57" fill="none" xmlns="http://www.w3.org/2000/svg">
<circle cx="28.5" cy="28.5" r="28.5" fill="#143D59"/>
<path d="M48 29C48 39.4765 39.4765 48 29 48C18.5235 48 10 39.4765 10 29C10 28.3441 10.5312 27.8125 11.1875 27.8125C11.8438 27.8125 12.375 28.3441 12.375 29C12.375 38.1671 19.8329 45.625 29 45.625C38.1671 45.625 45.625 38.1671 45.625 29C45.625 19.8329 38.1671 12.375 29 12.375C24.5821 12.375 20.4793 14.0925 17.3934 17.125H21.875C22.5313 17.125 23.0625 17.6566 23.0625 18.3125C23.0625 18.9684 22.5313 19.5 21.875 19.5H14.75C14.0937 19.5 13.5625 18.9684 13.5625 18.3125V11.1875C13.5625 10.5316 14.0937 10 14.75 10C15.4063 10 15.9375 10.5316 15.9375 11.1875V15.2381C19.441 11.8941 24.0446 10 29 10C39.4765 10 48 18.5235 48 29ZM30.1875 27.8125H27.8125C27.1574 27.8125 26.625 27.2797 26.625 26.625C26.625 25.9703 27.1574 25.4375 27.8125 25.4375H32.5625C33.2188 25.4375 33.75 24.9059 33.75 24.25C33.75 23.5941 33.2188 23.0625 32.5625 23.0625H30.1875V21.875C30.1875 21.2191 29.6563 20.6875 29 20.6875C28.3437 20.6875 27.8125 21.2191 27.8125 21.875V23.0625C25.848 23.0625 24.25 24.6605 24.25 26.625C24.25 28.5895 25.848 30.1875 27.8125 30.1875H30.1875C30.8426 30.1875 31.375 30.7203 31.375 31.375C31.375 32.0297 30.8426 32.5625 30.1875 32.5625H25.4375C24.7812 32.5625 24.25 33.0941 24.25 33.75C24.25 34.4059 24.7812 34.9375 25.4375 34.9375H27.8125V36.125C27.8125 36.7809 28.3437 37.3125 29 37.3125C29.6563 37.3125 30.1875 36.7809 30.1875 36.125V34.9375C32.152 34.9375 33.75 33.3395 33.75 31.375C33.75 29.4105 32.152 27.8125 30.1875 27.8125Z" fill="white"/>
</svg>
