<svg width="11" height="11" viewBox="0 0 11 11" fill="none" xmlns="http://www.w3.org/2000/svg">
<path d="M7.43359 2.57814H9.50063L7.11133 0.188843V2.25588C7.11133 2.43368 7.25579 2.57814 7.43359 2.57814Z" fill="#2F536C"/>
<path d="M2.27734 11H8.72266C9.25577 11 9.68945 10.5663 9.68945 10.0332V3.22266H7.43359C6.90048 3.22266 6.4668 2.78897 6.4668 2.25586V0H2.27734C1.74423 0 1.31055 0.433684 1.31055 0.966797V10.0332C1.31055 10.5663 1.74423 11 2.27734 11ZM4.21094 5.17773H7.43359C7.61172 5.17773 7.75586 5.32187 7.75586 5.5C7.75586 5.67813 7.61172 5.82227 7.43359 5.82227H4.21094C4.03281 5.82227 3.88867 5.67813 3.88867 5.5C3.88867 5.32187 4.03281 5.17773 4.21094 5.17773ZM4.21094 6.4668H7.43359C7.61172 6.4668 7.75586 6.61094 7.75586 6.78906C7.75586 6.96719 7.61172 7.11133 7.43359 7.11133H4.21094C4.03281 7.11133 3.88867 6.96719 3.88867 6.78906C3.88867 6.61094 4.03281 6.4668 4.21094 6.4668ZM4.21094 7.75586H7.43359C7.61172 7.75586 7.75586 7.9 7.75586 8.07812C7.75586 8.25625 7.61172 8.40039 7.43359 8.40039H4.21094C4.03281 8.40039 3.88867 8.25625 3.88867 8.07812C3.88867 7.9 4.03281 7.75586 4.21094 7.75586ZM2.92188 5.17773C3.09985 5.17773 3.24414 5.32202 3.24414 5.5C3.24414 5.67798 3.09985 5.82227 2.92188 5.82227C2.7439 5.82227 2.59961 5.67798 2.59961 5.5C2.59961 5.32202 2.7439 5.17773 2.92188 5.17773ZM2.92188 6.4668C3.09985 6.4668 3.24414 6.61109 3.24414 6.78906C3.24414 6.96704 3.09985 7.11133 2.92188 7.11133C2.7439 7.11133 2.59961 6.96704 2.59961 6.78906C2.59961 6.61109 2.7439 6.4668 2.92188 6.4668ZM2.92188 7.75586C3.09985 7.75586 3.24414 7.90015 3.24414 8.07812C3.24414 8.2561 3.09985 8.40039 2.92188 8.40039C2.7439 8.40039 2.59961 8.2561 2.59961 8.07812C2.59961 7.90015 2.7439 7.75586 2.92188 7.75586Z" fill="#2F536C"/>
</svg>
