<svg width="33" height="33" viewBox="0 0 33 33" fill="none" xmlns="http://www.w3.org/2000/svg">
<path d="M16.5 33C25.6127 33 33 25.6127 33 16.5C33 7.3873 25.6127 0 16.5 0C7.3873 0 0 7.3873 0 16.5C0 25.6127 7.3873 33 16.5 33Z" fill="#143D59"/>
<path d="M12.1016 8.23815C13.2693 7.04186 14.6238 7.022 14.789 7.022C16.701 5.19672 18.4514 5.48351 18.4514 5.48351C16.9492 5.77901 15.9264 6.73277 15.594 7.08402C17.3443 7.37813 18.119 8.63297 18.119 8.63297C16.9028 7.41751 15.3849 7.41751 15.3849 7.41751C15.3549 7.41751 15.3246 7.41925 15.2946 7.42064C13.9426 9.04625 14.4733 10.8921 14.4733 10.8921C15.2249 13.4579 17.5569 14.0534 18.1869 14.1677C18.9745 13.8746 19.6721 13.3813 20.2109 12.7365C20.7498 12.0918 21.1114 11.3177 21.26 10.4906C21.4086 9.66349 21.3391 8.81195 21.0584 8.01989C20.7777 7.22783 20.2955 6.52258 19.6592 5.97366C19.0229 5.42473 18.2546 5.05107 17.43 4.88951C16.6053 4.72795 15.7528 4.78405 14.9564 5.0523C14.1601 5.32055 13.4473 5.79168 12.8885 6.41926C12.3297 7.04684 11.944 7.80921 11.7695 8.63122C11.8694 8.49141 11.9804 8.35996 12.1016 8.23815Z" fill="white"/>
<path d="M12.0715 10.6074C12.0903 11.2075 12.2704 11.8239 12.406 12.2083C12.9447 13.0639 13.7372 13.7298 14.6728 14.113C13.3371 12.3895 12.9189 9.57038 14.2682 7.6315C13.0294 8.08346 12.0397 9.21669 12.0715 10.6074Z" fill="white"/>
<path d="M27.4227 24.9797C27.3363 23.0885 27.2289 20.0917 25.5758 17.6399C25.5758 17.6399 25.105 16.998 23.9878 16.5711C23.9878 16.5711 21.5618 15.8324 20.4446 15.0337L19.9344 15.3822L19.9912 18.6985L16.9282 26.8754C16.8956 26.9628 16.8371 27.0382 16.7605 27.0915C16.6838 27.1447 16.5927 27.1733 16.4994 27.1733C16.4061 27.1733 16.315 27.1447 16.2384 27.0915C16.1617 27.0382 16.1032 26.9628 16.0706 26.8754L13.01 18.6992C13.01 18.6992 13.0665 15.3933 13.0654 15.3829C13.0727 15.4107 12.5546 15.0344 12.5546 15.0344C11.4395 15.8331 9.01239 16.5718 9.01239 16.5718C7.8952 16.9987 7.42407 17.6406 7.42407 17.6406C5.77302 20.0924 5.66395 23.0892 5.57718 24.9804C5.51759 26.2875 5.79149 26.7747 6.13473 26.914C10.4077 28.6289 22.5884 28.6289 26.862 26.914C27.2094 26.775 27.4816 26.2868 27.4227 24.9797Z" fill="white"/>
<path d="M16.6098 16.7917L16.4704 16.7948C16.015 16.79 15.5635 16.7092 15.1347 16.5558L16.3488 18.4138L15.2609 19.4652L16.3822 26.2742C16.3867 26.3026 16.4012 26.3285 16.4231 26.347C16.4451 26.3656 16.473 26.3756 16.5018 26.3753C16.5304 26.3752 16.5581 26.365 16.5799 26.3465C16.6018 26.3281 16.6164 26.3025 16.6213 26.2742L17.7426 19.4652L16.6523 18.4138L17.8486 16.5837C17.4457 16.7035 17.0297 16.7734 16.6098 16.7917Z" fill="white"/>
</svg>
