<svg width="18" height="18" viewBox="0 0 18 18" fill="none" xmlns="http://www.w3.org/2000/svg">
<g clip-path="url(#clip0_619_25051)">
<path d="M11.9688 8.647L8.23116 5.93002C8.094 5.83059 7.91191 5.81561 7.76156 5.89288C7.61002 5.96955 7.51538 6.12529 7.51538 6.2936V11.7258C7.51538 11.8959 7.61002 12.051 7.76156 12.1277C7.82565 12.16 7.89573 12.1762 7.96641 12.1762C8.05866 12.1762 8.1521 12.1469 8.23116 12.0887L11.9688 9.37416C12.0868 9.28731 12.1557 9.15314 12.1557 9.01058C12.1563 8.86563 12.0856 8.73205 11.9688 8.647Z" fill="white"/>
<path d="M9.0003 0C4.02875 0 0 4.02875 0 9.0003C0 13.9701 4.02875 17.9976 9.0003 17.9976C13.9706 17.9976 18 13.9695 18 9.0003C18.0006 4.02875 13.9706 0 9.0003 0ZM9.0003 16.496C4.86014 16.496 1.50344 13.1411 1.50344 9.0003C1.50344 4.86134 4.86014 1.50225 9.0003 1.50225C13.1399 1.50225 16.496 4.86074 16.496 9.0003C16.4966 13.1411 13.1399 16.496 9.0003 16.496Z" fill="white"/>
</g>
<defs>
<clipPath id="clip0_619_25051">
<rect width="18" height="18" fill="white"/>
</clipPath>
</defs>
</svg>
