<svg width="15" height="13" viewBox="0 0 15 13" fill="none" xmlns="http://www.w3.org/2000/svg">
<g clip-path="url(#clip0_605_16565)">
<path d="M0 6.5C0 10.0957 3.30214 13 7.3905 13C11.4789 13 14.781 10.0957 14.781 6.5C14.781 2.90426 11.4592 0 7.3905 0C3.30214 0 0 2.90426 0 6.5ZM13.0906 6.5C13.0906 9.26596 10.5354 11.5133 7.3905 11.5133C4.24561 11.5133 1.69038 9.26596 1.69038 6.5C1.69038 3.73404 4.24561 1.4867 7.3905 1.4867C10.5354 1.4867 13.0906 3.71676 13.0906 6.5Z" fill="#313131"/>
<path d="M7.11536 2.66222V6.46541C7.11536 6.56914 7.21363 6.67286 7.35122 6.67286C7.46916 6.67286 7.58709 6.58642 7.58709 6.46541V2.66222C7.58709 2.5585 7.48881 2.45477 7.35122 2.45477C7.23329 2.47206 7.11536 2.5585 7.11536 2.66222Z" fill="#313131"/>
<path d="M3.3218 7.95212C3.20387 7.98669 3.12524 8.03855 3.12524 8.07313C3.12524 8.09041 3.24318 8.07313 3.36111 8.03855L7.3512 6.56914C7.46913 6.53456 7.54775 6.4827 7.54775 6.44813C7.54775 6.43084 7.42982 6.44813 7.31189 6.4827L3.3218 7.95212Z" fill="#313131"/>
<path d="M7.46916 6.20612C7.29225 6.20612 7.13501 6.34441 7.13501 6.5C7.13501 6.65558 7.29225 6.79388 7.46916 6.79388H10.2996C10.4765 6.79388 10.6337 6.65558 10.6337 6.5C10.6337 6.34441 10.4765 6.20612 10.2996 6.20612H7.46916Z" fill="#313131"/>
<path d="M6.84009 6.46544C6.84009 6.74204 7.09561 6.96677 7.4101 6.96677C7.72459 6.96677 7.98011 6.74204 7.98011 6.46544C7.98011 6.18885 7.72459 5.96411 7.4101 5.96411C7.09561 5.96411 6.84009 6.18885 6.84009 6.46544Z" fill="#313131"/>
</g>
<defs>
<clipPath id="clip0_605_16565">
<rect width="14.781" height="13" fill="white"/>
</clipPath>
</defs>
</svg>
