<svg width="27" height="27" viewBox="0 0 27 27" fill="none" xmlns="http://www.w3.org/2000/svg">
<g clip-path="url(#clip0_535_3047)">
<path d="M11.918 25.3652C13.2286 25.3652 14.291 24.3028 14.291 22.9922C14.291 21.6816 13.2286 20.6191 11.918 20.6191C10.6074 20.6191 9.54492 21.6816 9.54492 22.9922C9.54492 24.3028 10.6074 25.3652 11.918 25.3652Z" fill="#143D59"/>
<path d="M19.8809 25.3652C21.1915 25.3652 22.2539 24.3028 22.2539 22.9922C22.2539 21.6816 21.1915 20.6191 19.8809 20.6191C18.5703 20.6191 17.5078 21.6816 17.5078 22.9922C17.5078 24.3028 18.5703 25.3652 19.8809 25.3652Z" fill="#143D59"/>
<path d="M0.791011 3.21684H4.08969L7.90858 16.5856L7.60905 17.1847C6.82036 18.7604 7.96527 20.6191 9.73181 20.6191H23.0448C23.482 20.6191 23.8358 20.2653 23.8358 19.8281C23.8358 19.3909 23.482 19.0371 23.0448 19.0371H9.73181C9.1444 19.0371 8.7605 18.4185 9.02422 17.8923L9.24286 17.455H23.0448C23.3978 17.455 23.7083 17.221 23.8057 16.8811L26.9697 5.80693C27.0377 5.56825 26.9898 5.31175 26.8407 5.11326C26.6909 4.91551 26.4568 4.79886 26.2089 4.79886H6.18692L5.4469 2.20872C5.34956 1.86885 5.03906 1.63477 4.686 1.63477H0.791011C0.353793 1.63477 0 1.98856 0 2.42578C0 2.86299 0.353793 3.21684 0.791011 3.21684Z" fill="#143D59"/>
</g>
<defs>
<clipPath id="clip0_535_3047">
<rect width="27" height="27" fill="white"/>
</clipPath>
</defs>
</svg>
