<svg width="78" height="78" viewBox="0 0 78 78" fill="none" xmlns="http://www.w3.org/2000/svg">
<path d="M39 78C60.5391 78 78 60.5391 78 39C78 17.4609 60.5391 0 39 0C17.4609 0 0 17.4609 0 39C0 60.5391 17.4609 78 39 78Z" fill="#143D59"/>
<path d="M28.6038 19.472C31.3639 16.6444 34.5654 16.5974 34.9558 16.5974C39.4752 12.2831 43.6124 12.961 43.6124 12.961C40.0616 13.6595 37.6442 15.9138 36.8584 16.744C40.9957 17.4392 42.8266 20.4052 42.8266 20.4052C39.9521 17.5323 36.3643 17.5323 36.3643 17.5323C36.2934 17.5323 36.2218 17.5364 36.1509 17.5397C32.9552 21.382 34.2096 25.7449 34.2096 25.7449C35.9862 31.8095 41.4981 33.2171 42.9873 33.4873C44.8488 32.7945 46.4976 31.6286 47.7713 30.1046C49.045 28.5805 49.8996 26.7508 50.2509 24.7959C50.6022 22.841 50.438 20.8282 49.7745 18.9561C49.111 17.0839 47.9711 15.417 46.4672 14.1195C44.9633 12.8221 43.1473 11.9389 41.1981 11.557C39.2489 11.1751 37.2339 11.3077 35.3515 11.9418C33.4692 12.5758 31.7846 13.6894 30.4637 15.1728C29.1428 16.6561 28.2313 18.4581 27.8188 20.4011C28.0549 20.0706 28.3174 19.7599 28.6038 19.472Z" fill="white"/>
<path d="M28.5325 25.0721C28.577 26.4904 29.0028 27.9475 29.3232 28.856C30.5965 30.8782 32.4697 32.4522 34.6811 33.358C31.524 29.2843 30.5356 22.6209 33.7248 18.0381C30.7967 19.1064 28.4576 21.7849 28.5325 25.0721Z" fill="white"/>
<path d="M64.8168 59.0429C64.6125 54.5729 64.3588 47.4895 60.4514 41.6943C60.4514 41.6943 59.3387 40.1771 56.698 39.1681C56.698 39.1681 50.9638 37.422 48.3231 35.5342L47.1173 36.3578L47.2516 44.1965L40.0116 63.5236C39.9347 63.7303 39.7963 63.9086 39.6152 64.0344C39.434 64.1603 39.2187 64.2277 38.9981 64.2277C38.7775 64.2277 38.5622 64.1603 38.3811 64.0344C38.1999 63.9086 38.0616 63.7303 37.9846 63.5236L30.7505 44.1982C30.7505 44.1982 30.8839 36.3842 30.8814 36.3595C30.8987 36.4254 29.674 35.5358 29.674 35.5358C27.0383 37.4236 21.3015 39.1698 21.3015 39.1698C18.6609 40.1788 17.5473 41.6959 17.5473 41.6959C13.6448 47.4912 13.387 54.5746 13.1819 59.0445C13.0411 62.1341 13.6885 63.2855 14.4998 63.615C24.5994 67.6682 53.3902 67.6682 63.4915 63.615C64.3127 63.2864 64.956 62.1324 64.8168 59.0429Z" fill="white"/>
<path d="M39.2595 39.6895L38.93 39.6969C37.8535 39.6855 36.7865 39.4945 35.7729 39.1318L38.6426 43.5236L36.0711 46.0085L38.7216 62.1027C38.7321 62.1699 38.7665 62.231 38.8183 62.2748C38.8702 62.3187 38.9362 62.3424 39.0041 62.3416C39.0718 62.3414 39.1373 62.3173 39.1889 62.2736C39.2406 62.2299 39.2752 62.1694 39.2867 62.1027L41.9372 46.0085L39.36 43.5236L42.1876 39.1977C41.2354 39.4809 40.252 39.6461 39.2595 39.6895Z" fill="white"/>
</svg>
