<svg width="23" height="25" viewBox="0 0 23 25" fill="none" xmlns="http://www.w3.org/2000/svg">
<path d="M7.10162 4.23818C8.26934 3.04189 9.62384 3.02203 9.78901 3.02203C11.7011 1.19675 13.4514 1.48354 13.4514 1.48354C11.9492 1.77904 10.9264 2.7328 10.594 3.08405C12.3443 3.37816 13.119 4.633 13.119 4.633C11.9028 3.41754 10.3849 3.41754 10.3849 3.41754C10.3549 3.41754 10.3246 3.41928 10.2946 3.42067C8.94258 5.04628 9.4733 6.89212 9.4733 6.89212C10.2249 9.4579 12.5569 10.0534 13.1869 10.1677C13.9745 9.87463 14.6721 9.38138 15.211 8.73658C15.7498 8.09178 16.1114 7.31769 16.26 6.49061C16.4086 5.66352 16.3392 4.81198 16.0585 4.01992C15.7777 3.22786 15.2955 2.52261 14.6592 1.97369C14.023 1.42476 13.2546 1.0511 12.43 0.88954C11.6053 0.727976 10.7528 0.784083 9.95644 1.05233C9.16007 1.32058 8.44735 1.79171 7.88851 2.41929C7.32967 3.04687 6.94401 3.80924 6.76953 4.63125C6.86939 4.49144 6.98045 4.35999 7.10162 4.23818Z" fill="#143D59"/>
<path d="M7.07154 6.60739C7.09036 7.20746 7.27052 7.8239 7.40607 8.20826C7.94477 9.06383 8.73727 9.72975 9.67286 10.113C8.33718 8.38946 7.91902 5.57035 9.26829 3.63147C8.02948 4.08343 7.03983 5.21665 7.07154 6.60739Z" fill="#143D59"/>
<path d="M22.4228 20.9797C22.3364 19.0885 22.229 16.0917 20.5759 13.6399C20.5759 13.6399 20.1051 12.998 18.9879 12.5711C18.9879 12.5711 16.5619 11.8324 15.4447 11.0337L14.9345 11.3822L14.9913 14.6985L11.9283 22.8754C11.8957 22.9628 11.8372 23.0382 11.7606 23.0915C11.6839 23.1447 11.5928 23.1733 11.4995 23.1733C11.4062 23.1733 11.3151 23.1447 11.2384 23.0915C11.1618 23.0382 11.1033 22.9628 11.0707 22.8754L8.01012 14.6992C8.01012 14.6992 8.06657 11.3933 8.06552 11.3829C8.07284 11.4107 7.55467 11.0344 7.55467 11.0344C6.43957 11.8331 4.01248 12.5718 4.01248 12.5718C2.89529 12.9987 2.42416 13.6406 2.42416 13.6406C0.773116 16.0924 0.664045 19.0892 0.577276 20.9804C0.517688 22.2875 0.791585 22.7747 1.13483 22.914C5.40775 24.6289 17.5885 24.6289 21.8621 22.914C22.2095 22.775 22.4817 22.2868 22.4228 20.9797Z" fill="#143D59"/>
<path d="M11.6098 12.7917L11.4704 12.7948C11.015 12.79 10.5636 12.7092 10.1348 12.5558L11.3488 14.4138L10.2609 15.4652L11.3823 22.2742C11.3867 22.3026 11.4013 22.3285 11.4232 22.347C11.4452 22.3656 11.4731 22.3756 11.5018 22.3753C11.5304 22.3752 11.5581 22.365 11.58 22.3465C11.6019 22.3281 11.6165 22.3025 11.6213 22.2742L12.7427 15.4652L11.6523 14.4138L12.8486 12.5837C12.4458 12.7035 12.0297 12.7734 11.6098 12.7917Z" fill="#143D59"/>
</svg>