<svg width="19" height="17" viewBox="0 0 19 17" fill="none" xmlns="http://www.w3.org/2000/svg">
<g clip-path="url(#clip0_622_25165)">
<path d="M12.6212 3.44978C12.6212 4.94192 11.3413 6.15152 9.76238 6.15152C8.18349 6.15152 6.90356 4.94192 6.90356 3.44978C6.90356 1.95765 8.18349 0.748047 9.76238 0.748047C11.3413 0.748047 12.6212 1.95765 12.6212 3.44978Z" fill="white"/>
<path d="M5.68749 3.44917C5.68749 4.52842 4.76166 5.40323 3.61967 5.40323C2.47783 5.40323 1.552 4.52842 1.552 3.44917C1.552 2.36992 2.47783 1.49512 3.61967 1.49512C4.76166 1.49512 5.68749 2.36992 5.68749 3.44917Z" fill="white"/>
<path d="M18.489 7.60493C18.404 7.55543 18.2971 7.55374 18.2104 7.60047L13.881 9.85151V8.80393C13.881 7.78401 12.9868 6.96485 11.9077 6.96485H2.58858C1.51555 6.96178 0.64307 7.78125 0.639654 8.79532V14.4023C0.637052 15.4213 1.50904 16.2494 2.58728 16.2518H11.9075C12.9868 16.2518 13.881 15.4222 13.881 14.4023V13.3557L18.2125 15.6061C18.254 15.6282 18.301 15.6399 18.3487 15.6399C18.3989 15.6399 18.4484 15.6267 18.491 15.6016C18.5782 15.5512 18.6304 15.4608 18.6279 15.3643V7.84196C18.6296 7.74528 18.5767 7.65504 18.489 7.60493Z" fill="white"/>
</g>
<defs>
<clipPath id="clip0_622_25165">
<rect width="17.9884" height="17" fill="white" transform="translate(0.639648)"/>
</clipPath>
</defs>
</svg>
